<?xml version="1.0" encoding="iso-8859-1"?>
<!-- Generator: Adobe Illustrator 19.0.0, SVG Export Plug-In . SVG Version: 6.00 Build 0)  -->
<svg version="1.1" id="Layer_1" xmlns="http://www.w3.org/2000/svg" xmlns:xlink="http://www.w3.org/1999/xlink" x="0px" y="0px"
	 viewBox="0 0 512 512" style="enable-background:new 0 0 512 512;" xml:space="preserve">
<circle style="fill:#FF7F4F;" cx="256" cy="256" r="256"/>
<path style="fill:#E03A00;" d="M501.76,184.142l-61.823-61.823l-73.799,57.375l-21.645-43.794H139.348l-63.917,57.651l119.36,119.36
	l-85.421,79.272l118.243,118.243C236.935,511.455,246.403,512,256,512c141.384,0,256-114.616,256-256
	C512,231.052,508.416,206.941,501.76,184.142z"/>
<path style="fill:#366695;" d="M64.072,141.936v29.019c0,15.551,12.607,28.157,28.157,28.157h57.463
	c15.551,0,28.158-12.607,28.158-28.157v-0.143c0-15.551,12.607-28.158,28.157-28.158h99.987c15.551,0,28.157,12.607,28.157,28.158
	v0.143c0,15.551,12.607,28.157,28.157,28.157h57.465c15.551,0,28.158-12.607,28.158-28.157v-29.019
	c0-15.551-12.607-28.158-28.158-28.158H92.229C76.678,113.778,64.072,126.385,64.072,141.936z"/>
<path style="fill:#273B7A;" d="M419.771,113.778H255.426v28.875h50.567c15.551,0,28.157,12.607,28.157,28.157v0.143
	c0,15.551,12.607,28.157,28.157,28.157h57.465c15.551,0,28.158-12.607,28.158-28.157v-29.017
	C447.928,126.385,435.322,113.778,419.771,113.778z"/>
<path style="fill:#386895;" d="M207.103,203.459L207.103,203.459c-5.961,0-10.793-4.832-10.793-10.793v-21.587
	c0-5.961,4.832-10.793,10.793-10.793l0,0c5.961,0,10.793,4.832,10.793,10.793v21.587
	C217.897,198.627,213.064,203.459,207.103,203.459z"/>
<path style="fill:#273B7A;" d="M309.638,203.459L309.638,203.459c-5.961,0-10.793-4.832-10.793-10.793v-21.587
	c0-5.961,4.832-10.793,10.793-10.793l0,0c5.961,0,10.793,4.832,10.793,10.793v21.587
	C320.431,198.627,315.599,203.459,309.638,203.459z"/>
<path style="fill:#FFFFFF;" d="M361.391,215.149L335.043,188.8H176.955l-26.348,26.348h-26.346l-22.295,155.613
	c-2.139,14.929,9.444,28.291,24.526,28.291h259.017c15.082,0,26.665-13.36,24.526-28.291l-22.295-155.614L361.391,215.149
	L361.391,215.149z"/>
<path style="fill:#E8E8E8;" d="M410.034,370.762l-22.295-155.614h-26.348L335.043,188.8h-79.619v210.251h130.082
	C400.591,399.051,412.174,385.691,410.034,370.762z"/>
<circle style="fill:#366695;" cx="256" cy="295.65" r="85.333"/>
<path style="fill:#273B7A;" d="M256,210.316c-0.193,0-0.381,0.014-0.574,0.014v170.637c0.193,0.002,0.381,0.014,0.574,0.014
	c47.128,0,85.333-38.205,85.333-85.333C341.333,248.522,303.128,210.316,256,210.316z"/>
<circle style="fill:#71E2EF;" cx="256" cy="295.65" r="56.889"/>
<path style="fill:#38C6D9;" d="M256,238.761c-0.193,0-0.383,0.012-0.574,0.014v113.748c0.191,0.002,0.381,0.014,0.574,0.014
	c31.418,0,56.889-25.471,56.889-56.889S287.418,238.761,256,238.761z"/>
<circle style="fill:#366695;" cx="256" cy="295.65" r="14.222"/>
<path style="fill:#273B7A;" d="M256,281.428c-0.193,0-0.383,0.021-0.574,0.029v28.386c0.191,0.007,0.381,0.029,0.574,0.029
	c7.854,0,14.222-6.368,14.222-14.222C270.222,287.796,263.854,281.428,256,281.428z"/>
<g>
</g>
<g>
</g>
<g>
</g>
<g>
</g>
<g>
</g>
<g>
</g>
<g>
</g>
<g>
</g>
<g>
</g>
<g>
</g>
<g>
</g>
<g>
</g>
<g>
</g>
<g>
</g>
<g>
</g>
</svg>
